<svg width="28" height="28" viewBox="0 0 28 28" fill="none" xmlns="http://www.w3.org/2000/svg">
<path d="M14.2183 3.2729C16.3019 3.2729 18.3387 3.88796 20.0711 5.0403C21.8036 6.19264 23.1538 7.8305 23.9512 9.74677C24.7485 11.663 24.9572 13.7716 24.5507 15.8059C24.1442 17.8403 23.1408 19.7089 21.6675 21.1755C20.1942 22.6422 18.3171 23.641 16.2735 24.0456C14.23 24.4503 12.1118 24.2426 10.1868 23.4488C8.26184 22.6551 6.61653 21.3109 5.45895 19.5863C4.30138 17.8617 3.68352 15.8342 3.68352 13.76C3.68352 10.9787 4.79344 8.31122 6.76909 6.3445C8.74475 4.37779 11.4243 3.2729 14.2183 3.2729ZM14.2183 0.37352C11.5624 0.37352 8.96604 1.15754 6.75769 2.62643C4.54935 4.09533 2.82815 6.18312 1.81176 8.6258C0.795369 11.0685 0.529435 13.7563 1.04759 16.3495C1.56574 18.9426 2.8447 21.3246 4.72275 23.1941C6.60079 25.0637 8.99357 26.3368 11.5985 26.8526C14.2034 27.3684 16.9035 27.1037 19.3573 26.0919C21.8111 25.0801 23.9083 23.3667 25.3839 21.1684C26.8595 18.97 27.6471 16.3854 27.6471 13.7415C27.6471 10.1961 26.2322 6.7959 23.7139 4.28891C21.1955 1.78193 17.7798 0.37352 14.2183 0.37352Z" fill="#1352F1"/>
<path d="M14.2182 7.94197C13.0656 7.94197 11.9388 8.28211 10.9804 8.91939C10.0221 9.55666 9.27509 10.4624 8.834 11.5222C8.39291 12.5819 8.2775 13.7481 8.50236 14.8731C8.72723 15.9981 9.28227 17.0315 10.0973 17.8426C10.9123 18.6537 11.9508 19.2061 13.0812 19.4298C14.2117 19.6536 15.3835 19.5388 16.4484 19.0998C17.5133 18.6608 18.4235 17.9175 19.0638 16.9637C19.7042 16.01 20.046 14.8887 20.046 13.7416C20.046 12.2035 19.432 10.7283 18.3391 9.64065C17.2461 8.553 15.7638 7.94197 14.2182 7.94197Z" fill="#1352F1"/>
</svg>
